<?xml version="1.0" encoding="UTF-8"?>
<svg xmlns="http://www.w3.org/2000/svg" width="1200" height="900" viewBox="0 0 1200 900">
  <defs>
    <linearGradient id="bg" x1="0" y1="0" x2="1" y2="1">
      <stop offset="0" stop-color="#0b1220"/>
      <stop offset="1" stop-color="#111827"/>
    </linearGradient>
    <linearGradient id="acc" x1="0" y1="0" x2="1" y2="1">
      <stop offset="0" stop-color="#ff5c8a"/>
      <stop offset="1" stop-color="#ff5c8a"/>
    </linearGradient>
    <filter id="softGlow" x="-30%" y="-30%" width="160%" height="160%">
      <feGaussianBlur stdDeviation="18" result="blur"/>
      <feColorMatrix in="blur" type="matrix"
        values="1 0 0 0 0
                0 1 0 0 0
                0 0 1 0 0
                0 0 0 0.55 0" result="glow"/>
      <feMerge>
        <feMergeNode in="glow"/>
        <feMergeNode in="SourceGraphic"/>
      </feMerge>
    </filter>
  </defs>

  <rect width="1200" height="900" rx="56" fill="url(#bg)"/>

  <g transform="translate(80 90) rotate(12 520 340)" opacity="0.95" filter="url(#softGlow)">
    <rect x="40" y="40" width="920" height="600" rx="56" fill="url(#acc)" opacity="0.16"/>
    <rect x="0" y="0" width="920" height="600" rx="56" fill="url(#acc)" opacity="0.12"/>
    <circle cx="760" cy="120" r="102" fill="#ff5c8a" opacity="0.16"/>
    <circle cx="160" cy="520" r="76" fill="#ff5c8a" opacity="0.14"/>
  </g>

  <g transform="translate(96 108)">
    <text x="0" y="36" fill="rgba(255,255,255,0.62)" font-family="system-ui, Segoe UI, Inter, sans-serif" font-size="18" letter-spacing="5">
      WOMEN
    </text>
    <text x="0" y="88" fill="white" font-family="system-ui, Segoe UI, Inter, sans-serif" font-size="54" font-weight="800">
      Satin Blouse
    </text>
  </g>

  <g transform="translate(740 250)">
    <rect x="-24" y="-24" width="320" height="320" rx="56" fill="url(#acc)" opacity="0.22"/>
    <rect x="0" y="0" width="272" height="272" rx="52" fill="rgba(255,255,255,0.08)" stroke="rgba(255,255,255,0.18)"/>
    <g transform="translate(72 64) scale(2.0)">
      <path fill="none" stroke="white" stroke-width="3.5" stroke-linecap="round" stroke-linejoin="round" opacity="0.95" d="M20 18l12-6 12 6 8 10-10 6v22H22V34l-10-6 8-10z"/>
    </g>
  </g>

  <g transform="translate(96 780)">
    <rect width="460" height="54" rx="18" fill="rgba(255,255,255,0.08)" stroke="rgba(255,255,255,0.14)"/>
    <text x="20" y="36" fill="rgba(255,255,255,0.85)" font-family="system-ui, Segoe UI, Inter, sans-serif" font-size="20">
      Q-Commerce Catalog
    </text>
  </g>
</svg>